# xmcd CD database file
#
# Track frame offsets:
#	150
#	13426
#	28887
#	42301
#	62680
#	76620
#	96223
#	110136
#	124546
#	137039
#	149960
#	163197
#	176815
#	189792
#	202909
#	216464
#	230513
#	250797
#
# Disc length: 3513 seconds
#
# Revision: 0
# Processed by: cddbd v1.5.1PL0 Copyright (c) Steve Scherf et al.
# Submitted via: CDex 1.50beta9
#
DISCID=0c0db712
DTITLE=Eddi Condon - The Discovery Of Jazz, Pt. 1
DYEAR=1900
DGENRE=Jazz
TTITLE0=Madame Dynamite
TTITLE1=Nobody´s Sweetheart
TTITLE2=Ballin´ The Jack
TTITLE3=Serenade To A Shylock
TTITLE4=Friar´s Point Shuffle
TTITLE5=A Good Man Is Hard To Find, Pt. 2
TTITLE6=Strut Miss Lizzie
TTITLE7=Sunday
TTITLE8=Oh Mein Papa
TTITLE9=(You´re Some) Pretty Doll
TTITLE10=Georgia Grind
TTITLE11=I Ain´t Gonna Give Nobody None Of My Jelly Roll
TTITLE12=Fidgety Feet
TTITLE13=Home Cooking
TTITLE14=Nobody Knows You When You´re Down And Out
TTITLE15=Makin´ Whoopee
TTITLE16=A Good Man Is Hard To Find, Pt. 1
TTITLE17=Baby, Won´t You Please Come Home?
EXTD=
EXTT0=
EXTT1=
EXTT2=
EXTT3=
EXTT4=
EXTT5=
EXTT6=
EXTT7=
EXTT8=
EXTT9=
EXTT10=
EXTT11=
EXTT12=
EXTT13=
EXTT14=
EXTT15=
EXTT16=
EXTT17=
PLAYORDER=
